# xmcd CD database file
#
# Track frame offsets:
#	150
#	17525
#	34672
#	51720
#	70540
#	88687
#	109882
#	127410
#	145892
#	162825
#	176767
#	190627
#	208637
#	225770
#	241915
#
# Disc length: 3460 seconds
#
# Revision: 0
# Processed by: cddbd v1.5.1PL2 Copyright (c) Steve Scherf et al.
# Submitted via: CDex 1.51
#
DISCID=ca0d820f
DTITLE=大橋純子 - プライムセレクション
DYEAR=2006
DGENRE=J-Pop
TTITLE0=たそがれマイ・ラブ
TTITLE1=STAR−LIGHT TRAIN
TTITLE2=シンプル・ラブ
TTITLE3=サファリ・ナイト
TTITLE4=ビューティフル・ミー
TTITLE5=シルエット・ロマンス
TTITLE6=夏女ソニア
TTITLE7=鍵はかえして
TTITLE8=ペイパー・ムーン
TTITLE9=キャシーの噂
TTITLE10=坂の上の家
TTITLE11=ミスター・スマイル
TTITLE12=クリスタル・シティー
TTITLE13=燃えつきて
TTITLE14=ファンタジック・ウーマン
EXTD=YEAR: 2006
EXTT0=
EXTT1=
EXTT2=
EXTT3=
EXTT4=
EXTT5=
EXTT6=
EXTT7=
EXTT8=
EXTT9=
EXTT10=
EXTT11=
EXTT12=
EXTT13=
EXTT14=
PLAYORDER=
